<svg xmlns="http://www.w3.org/2000/svg" viewBox="0 0 500 500"><g id="freepik--background-simple--inject-10"><path d="M341.57,70.09s-77.63-35.21-155.68,4.82S66.79,203.45,31.66,274.18,13.88,421.06,71.75,459.76s99-8.29,181.44-4.19S357.45,473.68,427,430.71s84.7-156.3,32.87-245.16S341.57,70.09,341.57,70.09Z" style="fill:#407BFF"></path><path d="M341.57,70.09s-77.63-35.21-155.68,4.82S66.79,203.45,31.66,274.18,13.88,421.06,71.75,459.76s99-8.29,181.44-4.19S357.45,473.68,427,430.71s84.7-156.3,32.87-245.16S341.57,70.09,341.57,70.09Z" style="fill:#fff;opacity:0.7000000000000001"></path></g></svg>